<svg width="93" height="46" viewBox="0 0 93 46" fill="none" xmlns="http://www.w3.org/2000/svg">
<g filter="url(#filter0_d_1_180)">
<path d="M13.6719 0.5625C13.5781 1.26562 13.5156 1.98438 13.4844 2.71875C13.4531 3.4375 13.4375 4.1875 13.4375 4.96875C13.4375 6.35938 13.5078 7.78125 13.6484 9.23438C13.7891 10.6719 14 12.1094 14.2812 13.5469C14.5625 14.9844 14.9141 16.3984 15.3359 17.7891C15.7578 19.1641 16.2422 20.4766 16.7891 21.7266C17.3516 22.9766 17.9766 24.1406 18.6641 25.2188C19.3672 26.2969 20.1406 27.25 20.9844 28.0781C21.9062 27.125 22.6484 26.0312 23.2109 24.7969C23.7891 23.5469 24.2344 22.25 24.5469 20.9062C24.875 19.5469 25.0938 18.1797 25.2031 16.8047C25.3125 15.4297 25.375 14.125 25.3906 12.8906H30.5469C30.5469 14.125 30.6016 15.4219 30.7109 16.7812C30.8203 18.1406 31.0312 19.4922 31.3438 20.8359C31.6562 22.1641 32.0938 23.4531 32.6562 24.7031C33.2188 25.9375 33.9531 27.0469 34.8594 28.0312C36.1719 26.6094 37.3047 25 38.2578 23.2031C39.2109 21.3906 40 19.4922 40.625 17.5078C41.25 15.5234 41.7109 13.4922 42.0078 11.4141C42.3047 9.33594 42.4531 7.29688 42.4531 5.29688C42.4531 3.625 42.3594 2.01562 42.1719 0.46875C43.5469 0.53125 44.7734 0.625 45.8516 0.75C46.9453 0.875 47.8906 1 48.6875 1.125C49.5938 1.28125 50.4062 1.4375 51.125 1.59375V7.5C50.6094 7.32812 50.1016 7.19531 49.6016 7.10156C49.1172 6.99219 48.6406 6.875 48.1719 6.75C48.1719 10.1094 47.8438 13.2266 47.1875 16.1016C46.5469 18.9609 45.6484 21.6328 44.4922 24.1172C43.3359 26.6016 41.9531 28.9062 40.3438 31.0312C38.7344 33.1562 36.9688 35.1406 35.0469 36.9844C33.6719 35.6562 32.3906 34.1719 31.2031 32.5312C30.0312 30.8906 28.9531 29.0312 27.9688 26.9531C26.9531 29.0312 25.8438 30.8984 24.6406 32.5547C23.4531 34.2109 22.1719 35.7031 20.7969 37.0312C18.8906 35.1875 17.1484 33.2031 15.5703 31.0781C13.9922 28.9531 12.6406 26.6484 11.5156 24.1641C10.3906 21.6797 9.51562 19.0078 8.89062 16.1484C8.26562 13.2734 7.95312 10.1562 7.95312 6.79688C7.39062 6.92188 6.84375 7.03906 6.3125 7.14844C5.79688 7.24219 5.28125 7.375 4.76562 7.54688V1.59375C4.76562 1.60938 4.96875 1.57812 5.375 1.5C5.79688 1.42188 6.39062 1.32813 7.15625 1.21875C7.9375 1.09375 8.875 0.976563 9.96875 0.867188C11.0625 0.742188 12.2969 0.640625 13.6719 0.5625ZM70.8594 0.28125C73.2656 0.28125 75.5312 0.492188 77.6562 0.914062C79.7812 1.33594 81.6406 1.92188 83.2344 2.67188C84.8281 3.42188 86.0859 4.32812 87.0078 5.39062C87.9297 6.4375 88.3906 7.59375 88.3906 8.85938V27.5156C88.3906 28.7812 87.9297 29.9453 87.0078 31.0078C86.0859 32.0547 84.8281 32.9531 83.2344 33.7031C81.6406 34.4531 79.7812 35.0391 77.6562 35.4609C75.5312 35.8828 73.2656 36.0938 70.8594 36.0938C69.5156 36.0938 68.1406 36.0469 66.7344 35.9531C65.3281 35.8438 63.9609 35.7109 62.6328 35.5547C61.3203 35.3828 60.0859 35.1875 58.9297 34.9688C57.7734 34.75 56.7812 34.5156 55.9531 34.2656V2.10938C56.7812 1.85937 57.7734 1.625 58.9297 1.40625C60.0859 1.1875 61.3203 1 62.6328 0.84375C63.9609 0.671875 65.3281 0.539062 66.7344 0.445312C68.1406 0.335937 69.5156 0.28125 70.8594 0.28125ZM70.9531 5.57812C69.5312 5.57812 68.2969 5.625 67.25 5.71875C66.2031 5.79688 65.3047 5.90625 64.5547 6.04688C63.8047 6.17188 63.1797 6.3125 62.6797 6.46875C62.1953 6.60938 61.7969 6.73438 61.4844 6.84375V29.5312C61.7969 29.6562 62.1953 29.7891 62.6797 29.9297C63.1797 30.0703 63.8047 30.2109 64.5547 30.3516C65.3047 30.4766 66.2031 30.5859 67.25 30.6797C68.2969 30.7578 69.5312 30.7969 70.9531 30.7969C72.7031 30.7969 74.2734 30.6562 75.6641 30.375C77.0703 30.0938 78.25 29.7188 79.2031 29.25C80.1719 28.7812 80.9141 28.2422 81.4297 27.6328C81.9453 27.0078 82.2031 26.3594 82.2031 25.6875V10.6875C82.2031 10.0156 81.9453 9.375 81.4297 8.76562C80.9141 8.14062 80.1719 7.59375 79.2031 7.125C78.25 6.65625 77.0703 6.28125 75.6641 6C74.2734 5.71875 72.7031 5.57812 70.9531 5.57812Z" fill="#34547A"/>
</g>
<defs>
<filter id="filter0_d_1_180" x="0.765625" y="0.28125" width="91.625" height="44.75" filterUnits="userSpaceOnUse" color-interpolation-filters="sRGB">
<feFlood flood-opacity="0" result="BackgroundImageFix"/>
<feColorMatrix in="SourceAlpha" type="matrix" values="0 0 0 0 0 0 0 0 0 0 0 0 0 0 0 0 0 0 127 0" result="hardAlpha"/>
<feOffset dy="4"/>
<feGaussianBlur stdDeviation="2"/>
<feComposite in2="hardAlpha" operator="out"/>
<feColorMatrix type="matrix" values="0 0 0 0 0 0 0 0 0 0 0 0 0 0 0 0 0 0 0.25 0"/>
<feBlend mode="normal" in2="BackgroundImageFix" result="effect1_dropShadow_1_180"/>
<feBlend mode="normal" in="SourceGraphic" in2="effect1_dropShadow_1_180" result="shape"/>
</filter>
</defs>
</svg>
